<mxfile host="65bd71144e">
    <diagram id="CGz5gvUMxi6If3MVP1VV" name="image">
        <mxGraphModel dx="-1307" dy="1827" grid="1" gridSize="10" guides="1" tooltips="1" connect="1" arrows="1" fold="1" page="1" pageScale="1" pageWidth="827" pageHeight="1169" math="0" shadow="0">
            <root>
                <mxCell id="0"/>
                <mxCell id="1" parent="0"/>
                <mxCell id="mNiAzSfXenX0VxuWbp-_-2" value="" style="rounded=0;whiteSpace=wrap;html=1;fillColor=#dae8fc;strokeColor=#6c8ebf;shadow=0;" parent="1" vertex="1">
                    <mxGeometry x="2630" y="-930" width="580" height="180" as="geometry"/>
                </mxCell>
                <mxCell id="3" value="&amp;nbsp; &amp;nbsp;Handler" style="rounded=1;whiteSpace=wrap;html=1;fontSize=14;strokeColor=#d6b656;fillColor=#fff2cc;arcSize=7;align=left;" parent="1" vertex="1">
                    <mxGeometry x="3000" y="-920" width="200" height="160" as="geometry"/>
                </mxCell>
                <mxCell id="5" value="middleware" style="rounded=1;whiteSpace=wrap;html=1;fontSize=14;strokeColor=#6c8ebf;fillColor=default;" parent="1" vertex="1">
                    <mxGeometry x="2640" y="-920" width="80" height="160" as="geometry"/>
                </mxCell>
                <mxCell id="7" value="..." style="rounded=1;whiteSpace=wrap;html=1;fontSize=14;strokeColor=#6c8ebf;fillColor=default;" parent="1" vertex="1">
                    <mxGeometry x="2730" y="-920" width="30" height="160" as="geometry"/>
                </mxCell>
                <mxCell id="8" value="..." style="rounded=1;whiteSpace=wrap;html=1;fontSize=14;strokeColor=#6c8ebf;fillColor=default;" parent="1" vertex="1">
                    <mxGeometry x="2770" y="-920" width="30" height="160" as="geometry"/>
                </mxCell>
                <mxCell id="9" value="middleware" style="rounded=1;whiteSpace=wrap;html=1;fontSize=14;strokeColor=#6c8ebf;fillColor=default;" parent="1" vertex="1">
                    <mxGeometry x="2890" y="-920" width="80" height="160" as="geometry"/>
                </mxCell>
                <mxCell id="10" value="..." style="rounded=1;whiteSpace=wrap;html=1;fontSize=14;strokeColor=#6c8ebf;fillColor=default;" parent="1" vertex="1">
                    <mxGeometry x="2850" y="-920" width="30" height="160" as="geometry"/>
                </mxCell>
                <mxCell id="11" value="..." style="rounded=1;whiteSpace=wrap;html=1;fontSize=14;strokeColor=#6c8ebf;fillColor=default;" parent="1" vertex="1">
                    <mxGeometry x="2810" y="-920" width="30" height="160" as="geometry"/>
                </mxCell>
                <mxCell id="16" value="" style="shape=flexArrow;endArrow=classic;html=1;" parent="1" edge="1">
                    <mxGeometry width="50" height="50" relative="1" as="geometry">
                        <mxPoint x="2560" y="-870" as="sourcePoint"/>
                        <mxPoint x="2620" y="-870" as="targetPoint"/>
                    </mxGeometry>
                </mxCell>
                <mxCell id="17" value="Request" style="text;html=1;strokeColor=none;fillColor=none;align=center;verticalAlign=middle;whiteSpace=wrap;rounded=0;" parent="1" vertex="1">
                    <mxGeometry x="2560" y="-910" width="60" height="20" as="geometry"/>
                </mxCell>
                <mxCell id="18" value="" style="shape=flexArrow;endArrow=classic;html=1;" parent="1" edge="1">
                    <mxGeometry width="50" height="50" relative="1" as="geometry">
                        <mxPoint x="2620" y="-810" as="sourcePoint"/>
                        <mxPoint x="2560" y="-810" as="targetPoint"/>
                    </mxGeometry>
                </mxCell>
                <mxCell id="19" value="Response" style="text;html=1;strokeColor=none;fillColor=none;align=center;verticalAlign=middle;whiteSpace=wrap;rounded=0;" parent="1" vertex="1">
                    <mxGeometry x="2560" y="-790" width="60" height="20" as="geometry"/>
                </mxCell>
                <mxCell id="24" value="" style="shape=flexArrow;endArrow=classic;html=1;fillColor=#f5f5f5;strokeColor=#666666;" parent="1" edge="1">
                    <mxGeometry width="50" height="50" relative="1" as="geometry">
                        <mxPoint x="2690" y="-890" as="sourcePoint"/>
                        <mxPoint x="3040" y="-890" as="targetPoint"/>
                    </mxGeometry>
                </mxCell>
                <mxCell id="25" value="" style="shape=flexArrow;endArrow=classic;html=1;fillColor=#f5f5f5;strokeColor=#666666;" parent="1" edge="1">
                    <mxGeometry width="50" height="50" relative="1" as="geometry">
                        <mxPoint x="3040" y="-790" as="sourcePoint"/>
                        <mxPoint x="2700" y="-790" as="targetPoint"/>
                    </mxGeometry>
                </mxCell>
                <mxCell id="34" value="" style="edgeStyle=none;html=1;" parent="1" edge="1">
                    <mxGeometry relative="1" as="geometry">
                        <mxPoint x="2822" y="-710.0000000000001" as="targetPoint"/>
                    </mxGeometry>
                </mxCell>
                <mxCell id="50" value="" style="shape=flexArrow;endArrow=classic;html=1;" parent="1" edge="1">
                    <mxGeometry width="50" height="50" relative="1" as="geometry">
                        <mxPoint x="2560" y="-630.0000000000001" as="sourcePoint"/>
                        <mxPoint x="2620" y="-630.0000000000001" as="targetPoint"/>
                    </mxGeometry>
                </mxCell>
                <mxCell id="51" value="Request" style="text;html=1;strokeColor=none;fillColor=none;align=center;verticalAlign=middle;whiteSpace=wrap;rounded=0;" parent="1" vertex="1">
                    <mxGeometry x="2560" y="-670" width="60" height="20" as="geometry"/>
                </mxCell>
                <mxCell id="52" value="" style="shape=flexArrow;endArrow=classic;html=1;" parent="1" edge="1">
                    <mxGeometry width="50" height="50" relative="1" as="geometry">
                        <mxPoint x="2620" y="-570" as="sourcePoint"/>
                        <mxPoint x="2560" y="-570" as="targetPoint"/>
                    </mxGeometry>
                </mxCell>
                <mxCell id="53" value="Response" style="text;html=1;strokeColor=none;fillColor=none;align=center;verticalAlign=middle;whiteSpace=wrap;rounded=0;" parent="1" vertex="1">
                    <mxGeometry x="2560" y="-550" width="60" height="20" as="geometry"/>
                </mxCell>
                <mxCell id="64" value="000610...7978" style="text;strokeColor=none;fillColor=#d5e8d4;align=center;verticalAlign=middle;rounded=0;fontStyle=0;html=1;" parent="1" vertex="1">
                    <mxGeometry x="2530" y="-690" width="90" height="20" as="geometry"/>
                </mxCell>
                <mxCell id="80" value="" style="shape=flexArrow;endArrow=classic;html=1;" parent="1" edge="1">
                    <mxGeometry width="50" height="50" relative="1" as="geometry">
                        <mxPoint x="3220" y="-870" as="sourcePoint"/>
                        <mxPoint x="3280" y="-870" as="targetPoint"/>
                    </mxGeometry>
                </mxCell>
                <mxCell id="81" value="Request" style="text;html=1;strokeColor=none;fillColor=none;align=center;verticalAlign=middle;whiteSpace=wrap;rounded=0;" parent="1" vertex="1">
                    <mxGeometry x="3220" y="-910" width="60" height="20" as="geometry"/>
                </mxCell>
                <mxCell id="82" value="" style="shape=flexArrow;endArrow=classic;html=1;" parent="1" edge="1">
                    <mxGeometry width="50" height="50" relative="1" as="geometry">
                        <mxPoint x="3280" y="-795" as="sourcePoint"/>
                        <mxPoint x="3220" y="-795" as="targetPoint"/>
                    </mxGeometry>
                </mxCell>
                <mxCell id="83" value="Response" style="text;html=1;strokeColor=none;fillColor=none;align=center;verticalAlign=middle;whiteSpace=wrap;rounded=0;" parent="1" vertex="1">
                    <mxGeometry x="3220" y="-781" width="60" height="20" as="geometry"/>
                </mxCell>
                <mxCell id="88" value="" style="rounded=1;whiteSpace=wrap;html=1;fontSize=14;strokeColor=#666666;fillColor=#f5f5f5;fontColor=#333333;" parent="1" vertex="1">
                    <mxGeometry x="3290" y="-920" width="30" height="160" as="geometry"/>
                </mxCell>
                <mxCell id="90" value="000610...7978" style="text;strokeColor=none;fillColor=#d5e8d4;align=center;verticalAlign=middle;rounded=0;fontStyle=0;html=1;" parent="1" vertex="1">
                    <mxGeometry x="3220" y="-860" width="90" height="20" as="geometry"/>
                </mxCell>
                <mxCell id="92" value="Transfer spans to upstream services." style="text;html=1;strokeColor=none;fillColor=none;align=center;verticalAlign=middle;whiteSpace=wrap;rounded=0;fontColor=default;" parent="1" vertex="1">
                    <mxGeometry x="3210" y="-970" width="110" height="40" as="geometry"/>
                </mxCell>
                <mxCell id="94" value="Span ID" style="text;html=1;strokeColor=none;fillColor=none;align=center;verticalAlign=middle;whiteSpace=wrap;rounded=0;" parent="1" vertex="1">
                    <mxGeometry x="2530" y="-710" width="60" height="20" as="geometry"/>
                </mxCell>
                <mxCell id="95" value="Inherit spans from downstream services." style="text;html=1;strokeColor=none;fillColor=none;align=center;verticalAlign=middle;whiteSpace=wrap;rounded=0;fontColor=default;" parent="1" vertex="1">
                    <mxGeometry x="3040" y="-730" width="130" height="40" as="geometry"/>
                </mxCell>
                <mxCell id="96" value="&lt;br&gt;OpenTelemetry&lt;br&gt;Tracer&lt;br&gt;(Tripperware)" style="rounded=1;whiteSpace=wrap;html=1;fontSize=14;strokeColor=#b85450;fillColor=#f8cecc;" parent="1" vertex="1">
                    <mxGeometry x="3080" y="-910" width="100" height="140" as="geometry"/>
                </mxCell>
                <mxCell id="97" value="" style="shape=flexArrow;endArrow=classic;html=1;fillColor=#f5f5f5;strokeColor=#666666;" parent="1" edge="1">
                    <mxGeometry width="50" height="50" relative="1" as="geometry">
                        <mxPoint x="3070" y="-870.0000000000001" as="sourcePoint"/>
                        <mxPoint x="3220" y="-870" as="targetPoint"/>
                    </mxGeometry>
                </mxCell>
                <mxCell id="98" value="" style="shape=flexArrow;endArrow=classic;html=1;fillColor=#f5f5f5;strokeColor=#666666;" parent="1" edge="1">
                    <mxGeometry width="50" height="50" relative="1" as="geometry">
                        <mxPoint x="3220" y="-795" as="sourcePoint"/>
                        <mxPoint x="3070" y="-795" as="targetPoint"/>
                    </mxGeometry>
                </mxCell>
                <mxCell id="12" value="Add Span" style="rounded=1;whiteSpace=wrap;html=1;fontSize=14;strokeColor=#b85450;fillColor=default;" parent="1" vertex="1">
                    <mxGeometry x="3090" y="-900" width="80" height="40" as="geometry"/>
                </mxCell>
                <mxCell id="39" value="000610...7978" style="text;strokeColor=none;fillColor=#d5e8d4;align=center;verticalAlign=middle;rounded=0;fontStyle=0;html=1;" parent="1" vertex="1">
                    <mxGeometry x="3110" y="-910" width="90" height="20" as="geometry"/>
                </mxCell>
                <mxCell id="99" value="" style="rounded=0;whiteSpace=wrap;html=1;fillColor=#dae8fc;strokeColor=#6c8ebf;shadow=0;" parent="1" vertex="1">
                    <mxGeometry x="2630" y="-690" width="580" height="180" as="geometry"/>
                </mxCell>
                <mxCell id="100" value="&amp;nbsp; &amp;nbsp;Handler" style="rounded=1;whiteSpace=wrap;html=1;fontSize=14;strokeColor=#d6b656;fillColor=#fff2cc;arcSize=7;align=left;" parent="1" vertex="1">
                    <mxGeometry x="3000" y="-680" width="200" height="160" as="geometry"/>
                </mxCell>
                <mxCell id="101" value="middleware" style="rounded=1;whiteSpace=wrap;html=1;fontSize=14;strokeColor=#6c8ebf;fillColor=default;" parent="1" vertex="1">
                    <mxGeometry x="2640" y="-680" width="80" height="160" as="geometry"/>
                </mxCell>
                <mxCell id="102" value="..." style="rounded=1;whiteSpace=wrap;html=1;fontSize=14;strokeColor=#6c8ebf;fillColor=default;" parent="1" vertex="1">
                    <mxGeometry x="2730" y="-680" width="30" height="160" as="geometry"/>
                </mxCell>
                <mxCell id="103" value="..." style="rounded=1;whiteSpace=wrap;html=1;fontSize=14;strokeColor=#6c8ebf;fillColor=default;" parent="1" vertex="1">
                    <mxGeometry x="2770" y="-680" width="30" height="160" as="geometry"/>
                </mxCell>
                <mxCell id="104" value="middleware" style="rounded=1;whiteSpace=wrap;html=1;fontSize=14;strokeColor=#6c8ebf;fillColor=default;" parent="1" vertex="1">
                    <mxGeometry x="2890" y="-680" width="80" height="160" as="geometry"/>
                </mxCell>
                <mxCell id="105" value="..." style="rounded=1;whiteSpace=wrap;html=1;fontSize=14;strokeColor=#6c8ebf;fillColor=default;" parent="1" vertex="1">
                    <mxGeometry x="2850" y="-680" width="30" height="160" as="geometry"/>
                </mxCell>
                <mxCell id="106" value="..." style="rounded=1;whiteSpace=wrap;html=1;fontSize=14;strokeColor=#6c8ebf;fillColor=default;" parent="1" vertex="1">
                    <mxGeometry x="2810" y="-680" width="30" height="160" as="geometry"/>
                </mxCell>
                <mxCell id="107" value="" style="shape=flexArrow;endArrow=classic;html=1;fillColor=#f5f5f5;strokeColor=#666666;" parent="1" edge="1">
                    <mxGeometry width="50" height="50" relative="1" as="geometry">
                        <mxPoint x="2690" y="-650" as="sourcePoint"/>
                        <mxPoint x="3040" y="-650" as="targetPoint"/>
                    </mxGeometry>
                </mxCell>
                <mxCell id="108" value="" style="shape=flexArrow;endArrow=classic;html=1;fillColor=#f5f5f5;strokeColor=#666666;" parent="1" edge="1">
                    <mxGeometry width="50" height="50" relative="1" as="geometry">
                        <mxPoint x="3040" y="-550" as="sourcePoint"/>
                        <mxPoint x="2700" y="-550" as="targetPoint"/>
                    </mxGeometry>
                </mxCell>
                <mxCell id="109" value="" style="shape=flexArrow;endArrow=classic;html=1;" parent="1" edge="1">
                    <mxGeometry width="50" height="50" relative="1" as="geometry">
                        <mxPoint x="3220" y="-630" as="sourcePoint"/>
                        <mxPoint x="3280" y="-630" as="targetPoint"/>
                    </mxGeometry>
                </mxCell>
                <mxCell id="110" value="Request" style="text;html=1;strokeColor=none;fillColor=none;align=center;verticalAlign=middle;whiteSpace=wrap;rounded=0;" parent="1" vertex="1">
                    <mxGeometry x="3220" y="-670" width="60" height="20" as="geometry"/>
                </mxCell>
                <mxCell id="111" value="" style="shape=flexArrow;endArrow=classic;html=1;" parent="1" edge="1">
                    <mxGeometry width="50" height="50" relative="1" as="geometry">
                        <mxPoint x="3280" y="-553" as="sourcePoint"/>
                        <mxPoint x="3220" y="-553" as="targetPoint"/>
                    </mxGeometry>
                </mxCell>
                <mxCell id="112" value="Response" style="text;html=1;strokeColor=none;fillColor=none;align=center;verticalAlign=middle;whiteSpace=wrap;rounded=0;" parent="1" vertex="1">
                    <mxGeometry x="3220" y="-540" width="60" height="20" as="geometry"/>
                </mxCell>
                <mxCell id="113" value="" style="rounded=1;whiteSpace=wrap;html=1;fontSize=14;strokeColor=#666666;fillColor=#f5f5f5;fontColor=#333333;" parent="1" vertex="1">
                    <mxGeometry x="3290" y="-680" width="30" height="160" as="geometry"/>
                </mxCell>
                <mxCell id="114" value="000610...7978" style="text;strokeColor=none;fillColor=#d5e8d4;align=center;verticalAlign=middle;rounded=0;fontStyle=0;html=1;" parent="1" vertex="1">
                    <mxGeometry x="3220" y="-620" width="90" height="20" as="geometry"/>
                </mxCell>
                <mxCell id="115" value="Transfer spans to upstream services." style="text;html=1;strokeColor=none;fillColor=none;align=center;verticalAlign=middle;whiteSpace=wrap;rounded=0;fontColor=default;" parent="1" vertex="1">
                    <mxGeometry x="3210" y="-730" width="110" height="40" as="geometry"/>
                </mxCell>
                <mxCell id="116" value="&lt;br&gt;OpenTelemetry&lt;br&gt;Tracer&lt;br&gt;(Tripperware)" style="rounded=1;whiteSpace=wrap;html=1;fontSize=14;strokeColor=#b85450;fillColor=#f8cecc;" parent="1" vertex="1">
                    <mxGeometry x="3080" y="-670" width="100" height="140" as="geometry"/>
                </mxCell>
                <mxCell id="117" value="" style="shape=flexArrow;endArrow=classic;html=1;fillColor=#f5f5f5;strokeColor=#666666;" parent="1" edge="1">
                    <mxGeometry width="50" height="50" relative="1" as="geometry">
                        <mxPoint x="3070" y="-630" as="sourcePoint"/>
                        <mxPoint x="3220" y="-630" as="targetPoint"/>
                    </mxGeometry>
                </mxCell>
                <mxCell id="118" value="" style="shape=flexArrow;endArrow=classic;html=1;fillColor=#f5f5f5;strokeColor=#666666;" parent="1" edge="1">
                    <mxGeometry width="50" height="50" relative="1" as="geometry">
                        <mxPoint x="3220" y="-553" as="sourcePoint"/>
                        <mxPoint x="3070" y="-553" as="targetPoint"/>
                    </mxGeometry>
                </mxCell>
                <mxCell id="119" value="Add Span" style="rounded=1;whiteSpace=wrap;html=1;fontSize=14;strokeColor=#b85450;fillColor=default;" parent="1" vertex="1">
                    <mxGeometry x="3090" y="-660" width="80" height="40" as="geometry"/>
                </mxCell>
                <mxCell id="120" value="000610...7978" style="text;strokeColor=none;fillColor=#d5e8d4;align=center;verticalAlign=middle;rounded=0;fontStyle=0;html=1;" parent="1" vertex="1">
                    <mxGeometry x="3110" y="-670" width="90" height="20" as="geometry"/>
                </mxCell>
                <mxCell id="65" style="edgeStyle=orthogonalEdgeStyle;curved=1;html=1;exitX=1;exitY=0.5;exitDx=0;exitDy=0;entryX=0;entryY=0.5;entryDx=0;entryDy=0;fontColor=default;fillColor=#d5e8d4;strokeColor=#82b366;strokeWidth=2;" parent="1" source="64" target="120" edge="1">
                    <mxGeometry relative="1" as="geometry">
                        <mxPoint x="2845" y="-630" as="targetPoint"/>
                    </mxGeometry>
                </mxCell>
            </root>
        </mxGraphModel>
    </diagram>
</mxfile>